<svg data-noselect="" viewBox="0 0 400 300" width="400" height="300" preserveAspectRatio="none" version="1.1" xmlns="http://www.w3.org/2000/svg" style="background: rgba(255, 255, 255, 0);"><defs></defs> <g id="shape_ixHRgV8udD" transform="translate(25.253807106598984,-6.852791878172589) rotate(0,229.5,186.5) scale(0.7614213197969543,0.7614213197969543)" filter="" style="cursor: move; opacity: 1;"><g><rect fill="rgba(0,0,0,0)" width="479" height="393" x="-10" y="-10"></rect><svg version="1.1" id="图层_1" xmlns="http://www.w3.org/2000/svg" xmlns:xlink="http://www.w3.org/1999/xlink" x="0px" y="0px" width="459" height="373" viewBox="0 0 283.46 226.77" style="enable-background:new 0 0 283.46 226.77;" xml:space="preserve" preserveAspectRatio="none" data-parent="shape_ixHRgV8udD">
<linearGradient id="SVGID_1_" gradientUnits="userSpaceOnUse" x1="163.0089" y1="98.2503" x2="139.0491" y2="122.2101">
	<stop offset="0" style="" stop-color="#28569E"></stop>
	<stop offset="1" style="" stop-color="#34B5B5"></stop>
</linearGradient>
<path style="" d="M136.651,119.661h33.786c0.113,0,0.225,0.013,0.337,0.017
	c0.011-0.346,0.027-0.689,0.027-1.038c0-15.555-10.593-28.631-24.959-32.417L136.651,119.661z" fill="url(#SVGID_1_)"></path>
<linearGradient id="SVGID_2_" gradientUnits="userSpaceOnUse" x1="151.4537" y1="104.4617" x2="112.392" y2="143.5234">
	<stop offset="0.2671" style="" stop-color="#E66A2B"></stop>
	<stop offset="0.5211" style="" stop-color="#DC2E80"></stop>
	<stop offset="0.5792" style="" stop-color="#D63081"></stop>
	<stop offset="0.683" style="" stop-color="#C23383"></stop>
	<stop offset="0.8205" style="" stop-color="#A03888"></stop>
	<stop offset="0.9849" style="" stop-color="#683A8D"></stop>
	<stop offset="1" style="" stop-color="#623A8E"></stop>
</linearGradient>
<path style="" d="M125.176,137.153c-2.728,0-5.301-1.274-6.955-3.444c-1.654-2.17-2.201-4.989-1.478-7.62
	l10.874-39.556c-13.808,4.148-23.869,16.951-23.869,32.108c0,18.516,15.011,33.527,33.528,33.527
	c11.672,0,21.945-5.968,27.949-15.014H125.176z" fill="url(#SVGID_2_)"></path>
<linearGradient id="SVGID_3_" gradientUnits="userSpaceOnUse" x1="124.5605" y1="85.2832" x2="175.278" y2="136.0007">
	<stop offset="0" style="" stop-color="#B7CD40"></stop>
	<stop offset="0.2785" style="" stop-color="#B1C840"></stop>
	<stop offset="0.6726" style="" stop-color="#A2B83F"></stop>
	<stop offset="1" style="" stop-color="#92A73E"></stop>
</linearGradient>
<path style="" d="M136.894,74.079c4.979,1.368,7.904,6.513,6.536,11.491l-10.304,37.481h36.108
	c5.163,0,9.347,4.184,9.347,9.347c0,0.107-0.013,0.21-0.016,0.316c0.722-1.272,1.14-2.739,1.14-4.306
	c0-4.831-3.916-8.746-8.745-8.746h-33.787l9.64-35.072c1.281-4.657-1.457-9.471-6.114-10.751c-1.609-0.442-3.234-0.395-4.728,0.036
	C136.277,73.926,136.586,73.994,136.894,74.079z" fill="url(#SVGID_3_)"></path>
<g>
	<path style="" d="M170.667,130.167h-46.833c-0.311,0-0.604-0.145-0.793-0.391c-0.189-0.246-0.253-0.566-0.174-0.867
		L135.2,82.576c0.143-0.534,0.696-0.85,1.224-0.709c0.534,0.142,0.852,0.69,0.71,1.224l-11.999,45.076h45.532c0.553,0,1,0.448,1,1
		C171.667,129.719,171.22,130.167,170.667,130.167z" fill="#7A9697"></path>
</g>
</svg></g> <!----></g><g id="shapge_XDn4mxom6L" transform="translate(120.81220597785136,190.73604060913704) rotate(0,110,19.658203125) scale(0.7614213197969543,0.7614213197969543)" filter="" style="cursor: move; opacity: 1;"><g><svg xmlns="http://www.w3.org/2000/svg" version="1.1" xmlns:xlink="http://www.w3.org/1999/xlink" overflow="hidden" style="top:0; left: 0" width="220" height="39.31640625" viewBox="0 0 220 39.31640625" preserveAspectRatio="none" data-parent="shapge_XDn4mxom6L"><rect fill="rgba(0,0,0,0)" width="220" height="39.31640625"></rect> <rect opacity="0"></rect><g transform="translate(0 0)" data-width="198.0322265625"><path fill="#683a8d" d="M10.31-22.62L10.31-22.62L10.31-22.62Q18.30-25.17 22.17-22.53L22.17-22.53L22.17-22.53Q23.78-21.46 24.01-20.14L24.01-20.14L24.01-20.14Q24.30-19.17 25.01-19.34L25.01-19.34L27.84-19.46L27.84-19.46Q30.29-18.92 30.20-16.79L30.20-16.79L30.20-16.79Q30.10-15.73 28.71-15.95L28.71-15.95L24.88-16.08L24.88-16.08Q23.53-16.18 22.98-15.89L22.98-15.89L22.98-15.89Q22.59-15.63 22.24-14.82L22.24-14.82L22.24-14.82Q22.01-14.08 22.72-13.99L22.72-13.99L22.72-13.99Q24.04-13.57 23.56-12.12L23.56-12.12L23.56-12.12Q22.56-10.96 19.50-10.31L19.50-10.31L19.50-10.31Q15.82-9.47 13.34-8.51L13.34-8.51L13.34-8.51Q12.02-7.06 13.41-6.48L13.41-6.48L13.41-6.48Q14.24-5.58 15.34-6.06L15.34-6.06L15.34-6.06Q18.63-6.90 20.50-7.19L20.50-7.19L20.50-7.19Q23.30-7.61 24.56-5.32L24.56-5.32L24.56-5.32Q24.81-4.74 24.43-3.38L24.43-3.38L24.43-3.38Q24.20-2.22 23.24-0.81L23.24-0.81L23.24-0.81Q22.85-0.42 23.24 0.48L23.24 0.48L23.24 0.48Q24.20 2.19 22.49 2.51L22.49 2.51L22.49 2.51Q19.88 1.97 16.11 3.25L16.11 3.25L16.11 3.25Q15.37 4.42 14.66 3.64L14.66 3.64L14.66 3.64Q12.54 0.74 11.70-2.55L11.70-2.55L11.70-2.55Q11.41-3.58 11.25-3.71L11.25-3.71L11.25-3.71Q11.02-3.77 10.47-3.00L10.47-3.00L10.47-3.00Q8.60 0.26 6.38 2.51L6.38 2.51L6.38 2.51Q5.48 3.61 5.64 2.45L5.64 2.45L5.64 2.45Q6.35-0.55 8.99-6.38L8.99-6.38L8.99-6.38Q9.86-7.64 8.57-7.73L8.57-7.73L8.57-7.73Q7.25-8.09 7.22-9.70L7.22-9.70L7.22-9.70Q7.35-10.54 8.41-11.09L8.41-11.09L8.41-11.09Q9.18-11.47 10.34-11.60L10.34-11.60L10.34-11.60Q11.89-12.02 11.89-13.83L11.89-13.83L11.89-13.83Q11.76-14.63 10.25-13.89L10.25-13.89L10.25-13.89Q9.22-13.57 7.67-12.73L7.67-12.73L7.67-12.73Q6.19-12.05 5.09-12.15L5.09-12.15L5.09-12.15Q4.45-12.21 3.80-12.89L3.80-12.89L3.80-12.89Q2.71-14.02 3.67-15.15L3.67-15.15L3.67-15.15Q5.16-16.44 8.48-16.95L8.48-16.95L8.48-16.95Q10.41-17.37 12.34-17.69L12.34-17.69L12.34-17.69Q12.99-17.63 13.37-18.59L13.37-18.59L13.37-18.59Q13.57-19.72 12.25-19.27L12.25-19.27L12.25-19.27Q11.57-19.17 10.89-19.43L10.89-19.43L10.89-19.43Q9.64-19.92 9.31-20.92L9.31-20.92L9.31-20.92Q9.09-22.04 10.31-22.62ZM21.11-21.14L21.11-21.14L21.11-21.14Q19.88-22.08 18.01-21.30L18.01-21.30L18.01-21.30Q16.24-21.17 16.92-19.75L16.92-19.75L16.92-19.75Q16.89-18.85 17.02-18.72L17.02-18.72L17.02-18.72Q17.37-18.40 18.24-18.69L18.24-18.69L20.43-18.98L20.43-18.98Q21.17-19.37 21.27-19.85L21.27-19.85L21.27-19.85Q21.56-20.56 21.11-21.14ZM19.08-15.66L19.08-15.66L19.08-15.66Q18.34-15.82 16.21-15.44L16.21-15.44L16.21-15.44Q15.21-15.05 15.02-13.89L15.02-13.89L15.02-13.89Q14.53-13.08 15.21-12.76L15.21-12.76L15.21-12.76Q15.73-12.67 16.66-13.05L16.66-13.05L16.66-13.05Q18.11-13.34 18.56-13.89L18.56-13.89L18.56-13.89Q19.40-14.99 19.08-15.66ZM21.11-4.42L21.11-4.42L21.11-4.42Q20.56-4.71 19.24-4.09L19.24-4.09L19.24-4.09Q18.40-4.03 16.66-3.45L16.66-3.45L16.66-3.45Q14.95-2.96 15.47-1.58L15.47-1.58L15.63-0.68L15.63-0.68Q15.63 0.68 16.79 0.74L16.79 0.74L18.08 0.45L18.08 0.45Q20.11-0.42 20.88-2.67L20.88-2.67L20.88-2.67Q21.37-3.80 21.11-4.42Z" transform="translate(0 26.2646484375)"></path><path fill="#683a8d" d="M19.63-23.82L19.63-23.82L19.63-23.82Q21.30-24.27 22.88-22.62L22.88-22.62L23.49-21.91L23.49-21.91Q24.56-20.01 22.43-19.40L22.43-19.40L22.43-19.40Q21.01-18.85 19.85-17.63L19.85-17.63L19.85-17.63Q19.50-17.14 18.66-16.66L18.66-16.66L18.66-16.66Q17.24-16.31 18.18-15.02L18.18-15.02L18.18-15.02Q18.79-13.47 19.66-13.60L19.66-13.60L19.66-13.60Q22.24-13.89 24.81-14.08L24.81-14.08L24.81-14.08Q27.04-14.86 28.75-12.41L28.75-12.41L28.75-12.41Q29.13-11.76 28.88-10.83L28.88-10.83L28.88-10.83Q28.58-9.86 26.91-9.64L26.91-9.64L26.91-9.64Q26.07-9.60 24.11-9.93L24.11-9.93L24.11-9.93Q21.59-10.09 20.27-9.83L20.27-9.83L20.27-9.83Q19.37-9.51 19.66-8.15L19.66-8.15L19.66-8.15Q19.75-5.41 19.50-3.45L19.50-3.45L19.50-3.45Q19.17-0.68 17.69 1.71L17.69 1.71L17.69 1.71Q16.98 2.38 16.44 2.51L16.44 2.51L16.44 2.51Q15.73 2.71 15.15 3.19L15.15 3.19L15.15 3.19Q14.53 3.80 12.92 4.03L12.92 4.03L12.92 4.03Q12.05 4.06 11.70 2.84L11.70 2.84L11.70 2.84Q11.60 1.93 10.63 1.19L10.63 1.19L10.63 1.19Q9.60 0.39 10.54 0.52L10.54 0.52L10.54 0.52Q12.34 0.77 13.63 0.26L13.63 0.26L13.63 0.26Q15.05-0.61 15.47-2.13L15.47-2.13L15.47-2.13Q16.40-4.71 16.34-8.15L16.34-8.15L16.34-8.15Q16.37-9.44 15.02-9.15L15.02-9.15L15.02-9.15Q9.86-8.51 6.64-7.44L6.64-7.44L6.64-7.44Q5.48-7.25 4.71-7.96L4.71-7.96L4.71-7.96Q3.83-8.86 3.87-9.89L3.87-9.89L3.87-9.89Q4.03-10.63 4.71-11.12L4.71-11.12L4.71-11.12Q6.51-12.12 9.86-12.44L9.86-12.44L14.37-13.08L14.37-13.08Q15.82-13.05 15.21-14.41L15.21-14.41L15.21-14.41Q15.02-15.02 14.44-15.73L14.44-15.73L14.44-15.73Q14.15-16.69 14.18-16.82L14.18-16.82L14.18-16.82Q14.73-17.60 16.44-16.82L16.44-16.82L16.44-16.82Q17.14-17.02 17.24-17.69L17.24-17.69L17.24-17.69Q17.53-18.72 18.47-20.27L18.47-20.27L18.47-20.27Q19.27-21.69 18.18-22.17L18.18-22.17L18.18-22.17Q15.98-21.59 14.47-20.24L14.47-20.24L14.47-20.24Q12.44-17.66 10.28-19.85L10.28-19.85L10.28-19.85Q8.77-21.79 11.50-22.95L11.50-22.95L11.50-22.95Q14.37-23.53 18.14-23.56L18.14-23.56L18.14-23.56Q18.92-23.56 19.63-23.82Z" transform="translate(33 26.2646484375)"></path><path fill="#683a8d" d="M15.08-22.78L15.08-22.78L15.08-22.78Q15.92-24.98 17.53-23.69L17.53-23.69L17.53-23.69Q18.56-22.11 18.30-20.37L18.30-20.37L18.30-20.37Q18.11-19.05 19.34-19.40L19.34-19.40L19.34-19.40Q20.63-19.72 21.91-19.92L21.91-19.92L21.91-19.92Q23.11-20.37 24.07-19.50L24.07-19.50L24.07-19.50Q25.04-17.85 22.95-16.85L22.95-16.85L22.95-16.85Q21.27-16.24 19.08-16.02L19.08-16.02L19.08-16.02Q18.43-15.89 18.24-15.73L18.24-15.73L18.24-15.73Q17.82-15.24 17.95-13.99L17.95-13.99L17.95-13.99Q17.66-12.96 18.69-12.83L18.69-12.83L18.69-12.83Q19.17-12.83 20.46-13.21L20.46-13.21L20.46-13.21Q21.66-13.47 22.49-12.92L22.49-12.92L22.49-12.92Q23.04-12.44 22.95-11.83L22.95-11.83L22.95-11.83Q22.78-10.83 21.46-10.18L21.46-10.18L21.46-10.18Q18.56-9.44 12.44-8.67L12.44-8.67L12.44-8.67Q11.41-8.48 10.51-9.18L10.51-9.18L10.51-9.18Q9.15-10.70 10.80-11.57L10.80-11.57L13.34-11.86L13.34-11.86Q15.02-11.96 14.66-13.31L14.66-13.31L14.66-13.31Q14.76-14.44 14.47-15.02L14.47-15.02L14.47-15.02Q14.28-15.34 13.73-15.28L13.73-15.28L13.73-15.28Q11.79-15.05 9.86-14.70L9.86-14.70L9.86-14.70Q8.25-14.70 7.67-16.60L7.67-16.60L7.67-16.60Q7.83-18.11 9.44-17.95L9.44-17.95L13.31-18.37L13.31-18.37Q14.12-18.43 14.44-18.76L14.44-18.76L14.44-18.76Q14.82-19.17 14.70-20.21L14.70-20.21L14.70-20.21Q14.76-21.62 15.08-22.78ZM22.20-7.99L22.20-7.99L22.20-7.99Q23.78-9.15 25.91-8.38L25.91-8.38L25.91-8.38Q27.65-7.73 28.49-7.22L28.49-7.22L28.49-7.22Q29.97-6.41 29.42-4.80L29.42-4.80L29.42-4.80Q28.52-3.22 25.81-4.58L25.81-4.58L25.81-4.58Q24.52-5.19 22.59-6.54L22.59-6.54L22.59-6.54Q21.37-7.15 22.20-7.99ZM9.41-7.32L9.41-7.32L9.41-7.32Q10.25-7.73 10.60-6.70L10.60-6.70L10.60-6.70Q11.50-1.77 16.15 0.06L16.15 0.06L16.15 0.06Q18.59 0.87 22.46 0.29L22.46 0.29L22.46 0.29Q23.53-0.06 22.78-1.45L22.78-1.45L22.04-3.16L22.04-3.16Q21.66-4.09 22.49-3.13L22.49-3.13L22.49-3.13Q24.27-1.42 25.94-1.48L25.94-1.48L25.94-1.48Q27.36-1.26 26.72 0L26.72 0L26.72 0Q26.62 0.55 26.75 1.10L26.75 1.10L26.75 1.10Q26.59 1.90 25.68 2.48L25.68 2.48L25.68 2.48Q21.62 5.29 14.60 2.55L14.60 2.55L14.60 2.55Q9.38-0.19 8.93-5.64L8.93-5.64L8.93-5.64Q8.70-6.48 9.41-7.32ZM14.53-5.80L14.53-5.80L14.53-5.80Q14.89-7.09 15.76-6.96L15.76-6.96L15.76-6.96Q16.11-6.96 16.73-6.28L16.73-6.28L16.73-6.28Q17.37-4.80 18.53-5.51L18.53-5.51L18.53-5.51Q18.76-5.70 18.63-4.67L18.63-4.67L18.95-3.32L18.95-3.32Q19.01-2.71 18.47-2.45L18.47-2.45L18.47-2.45Q17.31-2.03 15.89-3.25L15.89-3.25L15.89-3.25Q14.37-4.48 14.53-5.80ZM5.22-5.22L5.22-5.22L5.22-5.22Q5.67-5.74 6.16-5.74L6.16-5.74L6.16-5.74Q7.22-5.51 6.38-4.38L6.38-4.38L6.38-4.38Q5.93-3.29 5.74-0.64L5.74-0.64L5.74-0.64Q5.90 1.35 5.45 2.19L5.45 2.19L5.45 2.19Q5.29 2.38 5.09 2.45L5.09 2.45L5.09 2.45Q4.29 2.03 3.64 0.58L3.64 0.58L3.64 0.58Q3.13-0.58 3.42-1.35L3.42-1.35L3.42-1.35Q3.80-3.42 5.22-5.22Z" transform="translate(66 26.2646484375)"></path><path fill="#683a8d" d="M11.44-23.62L11.44-23.62L11.44-23.62Q11.83-23.98 12.73-23.53L12.73-23.53L12.73-23.53Q13.44-22.98 13.63-22.01L13.63-22.01L13.63-22.01Q13.60-21.56 14.12-21.33L14.12-21.33L14.12-21.33Q15.53-21.40 16.21-21.17L16.21-21.17L16.21-21.17Q17.40-20.40 16.95-19.34L16.95-19.34L16.95-19.34Q16.69-18.76 15.79-18.69L15.79-18.69L15.79-18.69Q15.15-18.59 14.50-18.37L14.50-18.37L14.50-18.37Q13.28-17.98 13.50-16.92L13.50-16.92L13.50-16.92Q13.28-15.24 14.73-15.86L14.73-15.86L14.73-15.86Q16.50-16.11 16.24-14.41L16.24-14.41L16.24-14.41Q15.89-12.92 14.15-12.73L14.15-12.73L14.15-12.73Q12.83-12.18 13.08-11.12L13.08-11.12L13.08-11.12Q12.89-10.25 13.63-10.12L13.63-10.12L13.63-10.12Q14.24-10.31 14.95-10.41L14.95-10.41L14.95-10.41Q15.95-10.38 16.60-9.93L16.60-9.93L16.60-9.93Q17.85-8.51 15.50-7.61L15.50-7.61L15.50-7.61Q14.66-7.09 12.92-6.67L12.92-6.67L12.92-6.67Q12.18-6.28 12.08-5.51L12.08-5.51L12.08-5.51Q11.12-1.97 8.12 1.58L8.12 1.58L8.12 1.58Q7.12 2.26 7.38 1.29L7.38 1.29L7.38 1.29Q8.22-1.26 9.15-3.83L9.15-3.83L9.15-3.83Q9.67-4.83 8.89-5.06L8.89-5.06L8.89-5.06Q8.31-4.96 7.73-4.77L7.73-4.77L7.73-4.77Q6.67-4.51 5.51-5.12L5.51-5.12L5.51-5.12Q3.96-7.06 6.54-8.22L6.54-8.22L6.54-8.22Q8.15-8.67 9.76-8.89L9.76-8.89L9.76-8.89Q10.67-9.18 10.41-10.63L10.41-10.63L10.41-10.63Q10.25-11.63 9.44-11.31L9.44-11.31L9.44-11.31Q8.15-11.05 7.15-12.57L7.15-12.57L7.15-12.57Q6.51-13.89 7.96-14.02L7.96-14.02L9.25-14.34L9.25-14.34Q10.96-14.57 10.63-16.05L10.63-16.05L10.63-16.05Q11.02-17.72 9.47-17.43L9.47-17.43L6.90-16.92L6.90-16.92Q5.93-16.69 6.77-17.60L6.77-17.60L6.77-17.60Q8.51-18.92 9.99-19.59L9.99-19.59L9.99-19.59Q10.73-19.92 10.73-20.63L10.73-20.63L10.73-20.63Q10.63-22.33 11.44-23.62ZM27.39-22.72L27.39-22.72L27.39-22.72Q29.29-23.91 29.81-21.37L29.81-21.37L29.81-21.37Q30.04-20.46 29.26-19.43L29.26-19.43L29.26-19.43Q27.20-17.69 25.91-15.95L25.91-15.95L25.91-15.95Q25.04-14.92 25.97-14.50L25.97-14.50L25.97-14.50Q32.55-10.76 29.46-5.09L29.46-5.09L29.46-5.09Q28.62-3.74 27.04-3.25L27.04-3.25L27.04-3.25Q25.72-2.06 24.69-3.03L24.69-3.03L24.69-3.03Q24.56-3.25 24.49-3.58L24.49-3.58L24.49-3.58Q23.98-4.90 22.08-5.54L22.08-5.54L22.08-5.54Q21.79-5.51 21.62-4.48L21.62-4.48L21.62-4.48Q21.50-0.35 20.21 2.87L20.21 2.87L20.21 2.87Q19.85 3.67 19.40 3.96L19.40 3.96L19.40 3.96Q19.14 4.06 18.76 2.80L18.76 2.80L18.76 2.80Q18.56 1.74 18.53-1.10L18.53-1.10L18.53-1.10Q18.50-9.89 18.63-20.08L18.63-20.08L18.63-20.08Q18.95-22.46 20.95-21.75L20.95-21.75L20.95-21.75Q21.59-21.62 22.24-21.75L22.24-21.75L22.24-21.75Q24.17-22.01 26.10-22.14L26.10-22.14L26.10-22.14Q26.91-22.33 27.39-22.72ZM25.20-20.63L25.20-20.63L25.20-20.63Q22.91-20.01 21.82-17.69L21.82-17.69L21.82-17.69Q21.21-15.05 21.62-10.99L21.62-10.99L21.75-6.54L21.75-6.54Q21.91-6.09 22.85-5.99L22.85-5.99L22.85-5.99Q24.40-5.77 25.43-6.03L25.43-6.03L25.43-6.03Q26.46-6.09 27.01-7.44L27.01-7.44L27.01-7.44Q27.68-10.38 25.27-13.57L25.27-13.57L25.27-13.57Q24.75-14.24 23.98-13.76L23.98-13.76L23.98-13.76Q23.43-13.08 22.88-13.15L22.88-13.15L22.88-13.15Q22.72-13.18 22.62-13.31L22.62-13.31L22.62-13.31Q23.88-16.69 26.20-20.43L26.20-20.43L26.20-20.43Q26.14-20.98 25.20-20.63Z" transform="translate(99 26.2646484375)"></path><path fill="#00a0e9" d="M1.84-20.21L1.84-20.21L1.84-20.21Q1.90-20.40 2.90-20.40L2.90-20.40L9.06-20.40L9.06-20.40Q10.09-20.40 10.18-20.27L10.18-20.27L10.18-20.27Q10.28-20.08 10.28-19.46L10.28-19.46L10.28-19.46Q10.44-18.56 9.70-18.66L9.70-18.66L9.70-18.66Q8.67-18.76 7.93-17.53L7.93-17.53L7.93-17.53Q7.80-17.21 7.80-16.44L7.80-16.44L7.80-16.44Q7.73-9.51 7.77-2.58L7.77-2.58L7.77-2.58Q7.57-0.90 9.31-0.35L9.31-0.35L9.31-0.35Q12.70 0 15.21-1.16L15.21-1.16L15.21-1.16Q16.92-2.32 17.50-4.22L17.50-4.22L17.50-4.22Q17.98-4.83 19.14-4.54L19.14-4.54L19.14-4.54Q19.27-4.45 19.14-3.48L19.14-3.48L19.14-3.48Q18.79-1.64 18.53 0.19L18.53 0.19L18.53 0.19Q18.34 1.19 18.21 1.32L18.21 1.32L18.21 1.32Q18.05 1.42 17.08 1.42L17.08 1.42L2.90 1.42L2.90 1.42Q1.87 1.42 1.77 0.64L1.77 0.64L1.77 0.64Q1.51-0.42 2.55-0.29L2.55-0.29L2.55-0.29Q3.71-0.29 4.22-1.71L4.22-1.71L4.22-1.71Q4.35-9.15 4.22-16.60L4.22-16.60L4.22-16.60Q4.22-17.37 3.83-18.01L3.83-18.01L3.83-18.01Q3.13-18.85 2.29-18.66L2.29-18.66L2.29-18.66Q1.58-18.63 1.77-19.50L1.77-19.50L1.77-19.50Q1.77-20.04 1.84-20.21Z" transform="translate(132 26.2646484375)"></path><path fill="#e60012" d="M8.06-20.37L8.06-20.37L8.06-20.37Q10.34-21.24 12.38-20.27L12.38-20.27L12.38-20.27Q13.83-19.75 14.50-18.18L14.50-18.18L14.50-18.18Q15.82-13.66 10.99-11.34L10.99-11.34L10.99-11.34Q9.60-10.99 10.31-9.73L10.31-9.73L10.31-9.73Q11.67-7.28 13.66-4.58L13.66-4.58L13.66-4.58Q14.60-3.93 15.40-5.48L15.40-5.48L15.40-5.48Q16.31-6.93 16.18-8.38L16.18-8.38L16.18-8.38Q15.73-9.47 14.50-9.41L14.50-9.41L14.50-9.41Q12.89-9.09 13.63-10.92L13.63-10.92L13.63-10.92Q13.76-11.02 14.73-11.02L14.73-11.02L20.88-11.02L20.88-11.02Q22.62-11.34 22.04-9.57L22.04-9.57L22.04-9.57Q21.91-9.44 20.95-9.28L20.95-9.28L20.95-9.28Q19.53-9.02 18.66-7.35L18.66-7.35L18.66-7.35Q17.69-5.35 16.21-3.48L16.21-3.48L16.21-3.48Q15.28-2.48 16.44-1.61L16.44-1.61L16.44-1.61Q19.46 0.58 20.85-3.13L20.85-3.13L20.85-3.13Q20.95-4.19 21.82-3.83L21.82-3.83L21.82-3.83Q23.14-3.74 22.14-1.80L22.14-1.80L22.14-1.80Q20.75 1.51 17.72 1.64L17.72 1.64L17.72 1.64Q15.86 1.77 13.86 0.35L13.86 0.35L13.86 0.35Q13.21-0.13 12.57 0.19L12.57 0.19L12.57 0.19Q7.57 3.74 2.61-0.29L2.61-0.29L2.61-0.29Q0.87-2.06 0.97-4.96L0.97-4.96L0.97-4.96Q1.29-8.02 4.87-10.57L4.87-10.57L4.87-10.57Q6.16-11.18 5.38-12.41L5.38-12.41L5.38-12.41Q4.22-15.73 5.67-18.37L5.67-18.37L5.67-18.37Q6.48-19.69 8.06-20.37ZM10.28-19.17L10.28-19.17L10.28-19.17Q8.57-19.24 7.93-17.37L7.93-17.37L7.93-17.37Q7.28-15.18 8.70-12.99L8.70-12.99L8.70-12.99Q9.80-12.79 11.18-14.15L11.18-14.15L11.18-14.15Q12.92-15.76 11.96-17.98L11.96-17.98L11.96-17.98Q11.50-19.11 10.28-19.17ZM7.35-8.15L7.35-8.15L7.35-8.15Q6.80-9.54 5.51-8.44L5.51-8.44L5.51-8.44Q3.64-6.54 4.25-4.13L4.25-4.13L4.25-4.13Q5.22-0.97 8.15-0.48L8.15-0.48L8.15-0.48Q9.80-0.39 10.96-1.16L10.96-1.16L10.96-1.16Q11.67-1.58 11.21-2.38L11.21-2.38L11.21-2.38Q9.47-4.58 7.35-8.15Z" transform="translate(151.9482421875 26.2646484375)"></path><path fill="#fff100" d="M1.13-20.24L1.13-20.24L1.13-20.24Q1.22-20.40 2.19-20.40L2.19-20.40L8.38-20.40L8.38-20.40Q9.76-20.75 9.60-19.53L9.60-19.53L9.60-19.53Q9.60-18.95 9.54-18.82L9.54-18.82L9.54-18.82Q9.44-18.69 8.48-18.53L8.48-18.53L8.48-18.53Q7.09-18.11 8.44-16.15L8.44-16.15L8.44-16.15Q9.86-13.57 11.41-10.99L11.41-10.99L11.41-10.99Q12.05-10.05 12.25-10.02L12.25-10.02L12.25-10.02Q12.89-10.18 13.31-11.21L13.31-11.21L16.27-16.37L16.27-16.37Q16.85-17.21 16.82-17.79L16.82-17.79L16.82-17.79Q16.76-18.59 15.69-18.63L15.69-18.63L15.69-18.63Q14.34-18.50 14.95-20.30L14.95-20.30L14.95-20.30Q15.15-20.40 16.11-20.40L16.11-20.40L20.85-20.40L20.85-20.40Q22.24-20.75 22.08-19.53L22.08-19.53L22.08-19.53Q22.08-18.95 22.01-18.82L22.01-18.82L22.01-18.82Q21.91-18.69 20.95-18.56L20.95-18.56L20.95-18.56Q19.50-18.21 18.56-16.56L18.56-16.56L18.56-16.56Q16.24-12.70 14.05-8.83L14.05-8.83L14.05-8.83Q13.50-7.93 13.37-7.54L13.37-7.54L13.37-7.54Q13.31-5.16 13.34-2.67L13.34-2.67L13.34-2.67Q13.12-1.03 14.60-0.42L14.60-0.42L14.60-0.42Q15.66-0.26 15.76-0.13L15.76-0.13L15.76-0.13Q16.31 1.74 14.70 1.42L14.70 1.42L8.57 1.42L8.57 1.42Q7.57 1.42 7.48 1.32L7.48 1.32L7.48 1.32Q7.35 1.16 7.35 0.55L7.35 0.55L7.35 0.55Q7.12-0.29 7.96-0.32L7.96-0.32L7.96-0.32Q9.54-0.19 9.86-2.13L9.86-2.13L9.86-2.13Q9.80-3.61 9.83-5.25L9.83-5.25L9.83-5.25Q9.96-5.83 9.70-6.54L9.70-6.54L3.74-16.85L3.74-16.85Q2.96-18.14 1.84-18.53L1.84-18.53L1.84-18.53Q0.64-18.56 1.13-20.24Z" transform="translate(175.505859375 26.2646484375)"></path></g></svg></g> <!----></g>  <!----></svg>