<svg data-noselect="" viewBox="0 0 400 300" width="400" height="300" preserveAspectRatio="none" version="1.1" xmlns="http://www.w3.org/2000/svg" style="background: rgba(255, 255, 255, 0);"><defs></defs> <g id="shape_TrpdhJY8Z0" transform="translate(-99.24999237060547,-145.75) rotate(0,617,484.5) scale(0.5,0.5)" filter="" style="cursor: move; opacity: 1;"><g><rect fill="rgba(0,0,0,0)" width="1254" height="989" x="-10" y="-10"></rect><svg version="1.1" id="图层_1" xmlns="http://www.w3.org/2000/svg" xmlns:xlink="http://www.w3.org/1999/xlink" x="0px" y="0px" width="1234" height="969" viewBox="0 0 283.46 226.77" style="enable-background:new 0 0 283.46 226.77;" xml:space="preserve" preserveAspectRatio="none" data-parent="shape_TrpdhJY8Z0">
<linearGradient id="SVGID_1_" gradientUnits="userSpaceOnUse" x1="163.0089" y1="98.2503" x2="139.0491" y2="122.2101">
	<stop offset="0" style="" stop-color="#28569E"></stop>
	<stop offset="1" style="" stop-color="#34B5B5"></stop>
</linearGradient>
<path style="" d="M136.651,119.661h33.786c0.113,0,0.225,0.013,0.337,0.017
	c0.011-0.346,0.027-0.689,0.027-1.038c0-15.555-10.593-28.631-24.959-32.417L136.651,119.661z" fill="url(#SVGID_1_)"></path>
<linearGradient id="SVGID_2_" gradientUnits="userSpaceOnUse" x1="151.4537" y1="104.4617" x2="112.392" y2="143.5234">
	<stop offset="0.2671" style="" stop-color="#E66A2B"></stop>
	<stop offset="0.5211" style="" stop-color="#DC2E80"></stop>
	<stop offset="0.5792" style="" stop-color="#D63081"></stop>
	<stop offset="0.683" style="" stop-color="#C23383"></stop>
	<stop offset="0.8205" style="" stop-color="#A03888"></stop>
	<stop offset="0.9849" style="" stop-color="#683A8D"></stop>
	<stop offset="1" style="" stop-color="#623A8E"></stop>
</linearGradient>
<path style="" d="M125.176,137.153c-2.728,0-5.301-1.274-6.955-3.444c-1.654-2.17-2.201-4.989-1.478-7.62
	l10.874-39.556c-13.808,4.148-23.869,16.951-23.869,32.108c0,18.516,15.011,33.527,33.528,33.527
	c11.672,0,21.945-5.968,27.949-15.014H125.176z" fill="url(#SVGID_2_)"></path>
<linearGradient id="SVGID_3_" gradientUnits="userSpaceOnUse" x1="124.5605" y1="85.2832" x2="175.278" y2="136.0007">
	<stop offset="0" style="" stop-color="#B7CD40"></stop>
	<stop offset="0.2785" style="" stop-color="#B1C840"></stop>
	<stop offset="0.6726" style="" stop-color="#A2B83F"></stop>
	<stop offset="1" style="" stop-color="#92A73E"></stop>
</linearGradient>
<path style="" d="M136.894,74.079c4.979,1.368,7.904,6.513,6.536,11.491l-10.304,37.481h36.108
	c5.163,0,9.347,4.184,9.347,9.347c0,0.107-0.013,0.21-0.016,0.316c0.722-1.272,1.14-2.739,1.14-4.306
	c0-4.831-3.916-8.746-8.745-8.746h-33.787l9.64-35.072c1.281-4.657-1.457-9.471-6.114-10.751c-1.609-0.442-3.234-0.395-4.728,0.036
	C136.277,73.926,136.586,73.994,136.894,74.079z" fill="url(#SVGID_3_)"></path>
<g>
	<path style="" d="M170.667,130.167h-46.833c-0.311,0-0.604-0.145-0.793-0.391c-0.189-0.246-0.253-0.566-0.174-0.867
		L135.2,82.576c0.143-0.534,0.696-0.85,1.224-0.709c0.534,0.142,0.852,0.69,0.71,1.224l-11.999,45.076h45.532c0.553,0,1,0.448,1,1
		C171.667,129.719,171.22,130.167,170.667,130.167z" fill="#7A9697"></path>
</g>
</svg></g> <!----></g><g id="shapge_HgZLgJ0GX2" transform="translate(226.7500057220459,184.05490493774414) rotate(0,31.424500000000002,18.48) scale(0.5,0.5)" filter="" style="cursor: move; opacity: 1;"><g><svg xmlns="http://www.w3.org/2000/svg" version="1.1" xmlns:xlink="http://www.w3.org/1999/xlink" overflow="hidden" style="top:0; left: 0" width="62.849000000000004" height="36.96" viewBox="0 0 62.849000000000004 36.96" preserveAspectRatio="none" data-parent="shapge_HgZLgJ0GX2"><rect fill="rgba(0,0,0,0)" width="62.849000000000004" height="36.96"></rect> <rect opacity="0"></rect><g transform="translate(0 0)" data-width="57.849000000000004"><path fill="#00a0e9" d="M16.93 0L3.30 0L3.30-24.19L6.37-24.19L6.37-2.61L16.93-2.61L16.93 0Z" transform="translate(0 29.040000000000003)" stroke="#00a0e9" stroke-width="2" stroke-linecap="round" stroke-linejoin="round"></path><path fill="rgb(220, 46, 128)" d="M4.13-6.44L4.13-6.44L4.13-6.44Q4.13-4.42 5.51-3.20L5.51-3.20L5.51-3.20Q6.90-1.98 8.91-1.98L8.91-1.98L8.91-1.98Q10.16-1.98 11.32-2.51L11.32-2.51L11.32-2.51Q12.47-3.04 13.53-3.93L13.53-3.93L13.53-3.93Q9.87-7.16 7.16-11.15L7.16-11.15L7.16-11.15Q5.84-10.13 4.98-8.99L4.98-8.99L4.98-8.99Q4.13-7.85 4.13-6.44ZM6.96-18.98L6.96-18.98L6.96-18.98Q6.96-17.00 8.12-14.69L8.12-14.69L8.12-14.69Q9.83-15.77 11.04-16.98L11.04-16.98L11.04-16.98Q12.24-18.18 12.24-19.80L12.24-19.80L12.24-19.80Q12.24-20.86 11.71-21.66L11.71-21.66L11.71-21.66Q11.19-22.47 9.93-22.47L9.93-22.47L9.93-22.47Q8.58-22.47 7.77-21.48L7.77-21.48L7.77-21.48Q6.96-20.49 6.96-18.98ZM21.88-2.08L21.88-2.08L21.05 0.43L21.05 0.43Q18.51-0.26 15.54-2.34L15.54-2.34L15.54-2.34Q14.16-1.06 12.42-0.31L12.42-0.31L12.42-0.31Q10.69 0.43 8.55 0.43L8.55 0.43L8.55 0.43Q5.25 0.43 3.22-1.47L3.22-1.47L3.22-1.47Q1.19-3.37 1.19-6.27L1.19-6.27L1.19-6.27Q1.19-7.89 1.86-9.14L1.86-9.14L1.86-9.14Q2.54-10.40 3.61-11.40L3.61-11.40L3.61-11.40Q4.69-12.41 5.94-13.27L5.94-13.27L5.94-13.27Q4.36-16.30 4.36-18.91L4.36-18.91L4.36-18.91Q4.36-21.35 5.89-23.00L5.89-23.00L5.89-23.00Q7.43-24.65 9.93-24.65L9.93-24.65L9.93-24.65Q12.18-24.65 13.43-23.31L13.43-23.31L13.43-23.31Q14.69-21.98 14.69-19.87L14.69-19.87L14.69-19.87Q14.69-18.28 13.88-17.03L13.88-17.03L13.88-17.03Q13.07-15.77 11.83-14.72L11.83-14.72L11.83-14.72Q10.59-13.66 9.24-12.71L9.24-12.71L9.24-12.71Q11.78-8.81 15.38-5.87L15.38-5.87L15.38-5.87Q17.66-8.88 18.81-13.04L18.81-13.04L21.58-13.04L21.58-13.04Q20.23-8.18 17.36-4.39L17.36-4.39L17.36-4.39Q19.83-2.64 21.88-2.08Z" transform="translate(17.886 29.040000000000003)" stroke="rgb(220, 46, 128)" stroke-width="2" stroke-linecap="round" stroke-linejoin="round"></path><path fill="#009944" d="M10.30 0L7.23 0L7.23-9.41L-0.03-24.19L3.23-24.19L6.34-17.36L6.34-17.36Q6.60-16.73 6.86-16.14L6.86-16.14L6.86-16.14Q7.76-14.16 8.71-12.08L8.71-12.08L8.84-12.08L8.84-12.08Q9.08-12.54 9.27-13.00L9.27-13.00L9.27-13.00Q10.33-15.18 11.25-17.36L11.25-17.36L14.39-24.19L17.56-24.19L10.30-9.41L10.30 0Z" transform="translate(40.326 29.040000000000003)" stroke="#009944" stroke-width="2" stroke-linecap="round" stroke-linejoin="round"></path></g></svg></g> <!----></g><g id="shapge_MLRsV8AXIR" transform="translate(144.25,184.05490398406982) rotate(0,80,26.264747191011224) scale(0.5,0.5)" filter="" style="cursor: move; opacity: 1;"><g><svg xmlns="http://www.w3.org/2000/svg" version="1.1" xmlns:xlink="http://www.w3.org/1999/xlink" overflow="hidden" style="top:0; left: 0" width="160" height="52.52949438202245" viewBox="0 0 89 29.21953125" preserveAspectRatio="none" data-parent="shapge_MLRsV8AXIR"><rect fill="rgba(0,0,0,0)" width="89" height="29.21953125"></rect> <rect opacity="0"></rect><g transform="translate(0 0)" data-width="84"><path fill="#683A8D" d="M6.56-14.40L6.56-14.40L6.56-14.40Q11.65-16.02 14.11-14.33L14.11-14.33L14.11-14.33Q15.13-13.66 15.28-12.82L15.28-12.82L15.28-12.82Q15.46-12.20 15.91-12.30L15.91-12.30L17.72-12.39L17.72-12.39Q19.28-12.04 19.22-10.68L19.22-10.68L19.22-10.68Q19.15-10.01 18.27-10.15L18.27-10.15L15.83-10.23L15.83-10.23Q14.97-10.29 14.62-10.11L14.62-10.11L14.62-10.11Q14.38-9.95 14.15-9.43L14.15-9.43L14.15-9.43Q14.01-8.96 14.46-8.90L14.46-8.90L14.46-8.90Q15.30-8.63 14.99-7.71L14.99-7.71L14.99-7.71Q14.36-6.97 12.41-6.56L12.41-6.56L12.41-6.56Q10.07-6.03 8.49-5.41L8.49-5.41L8.49-5.41Q7.65-4.49 8.53-4.12L8.53-4.12L8.53-4.12Q9.06-3.55 9.76-3.86L9.76-3.86L9.76-3.86Q11.85-4.39 13.04-4.57L13.04-4.57L13.04-4.57Q14.83-4.84 15.63-3.38L15.63-3.38L15.63-3.38Q15.79-3.01 15.54-2.15L15.54-2.15L15.54-2.15Q15.40-1.42 14.79-0.51L14.79-0.51L14.79-0.51Q14.54-0.27 14.79 0.31L14.79 0.31L14.79 0.31Q15.40 1.39 14.31 1.60L14.31 1.60L14.31 1.60Q12.65 1.25 10.25 2.07L10.25 2.07L10.25 2.07Q9.78 2.81 9.33 2.32L9.33 2.32L9.33 2.32Q7.98 0.47 7.44-1.62L7.44-1.62L7.44-1.62Q7.26-2.28 7.16-2.36L7.16-2.36L7.16-2.36Q7.01-2.40 6.67-1.91L6.67-1.91L6.67-1.91Q5.48 0.16 4.06 1.60L4.06 1.60L4.06 1.60Q3.49 2.30 3.59 1.56L3.59 1.56L3.59 1.56Q4.04-0.35 5.72-4.06L5.72-4.06L5.72-4.06Q6.28-4.86 5.46-4.92L5.46-4.92L5.46-4.92Q4.61-5.15 4.59-6.17L4.59-6.17L4.59-6.17Q4.68-6.71 5.35-7.05L5.35-7.05L5.35-7.05Q5.84-7.30 6.58-7.38L6.58-7.38L6.58-7.38Q7.57-7.65 7.57-8.80L7.57-8.80L7.57-8.80Q7.49-9.31 6.52-8.84L6.52-8.84L6.52-8.84Q5.87-8.63 4.88-8.10L4.88-8.10L4.88-8.10Q3.94-7.67 3.24-7.73L3.24-7.73L3.24-7.73Q2.83-7.77 2.42-8.20L2.42-8.20L2.42-8.20Q1.72-8.92 2.34-9.64L2.34-9.64L2.34-9.64Q3.28-10.46 5.39-10.79L5.39-10.79L5.39-10.79Q6.62-11.05 7.85-11.26L7.85-11.26L7.85-11.26Q8.26-11.22 8.51-11.83L8.51-11.83L8.51-11.83Q8.63-12.55 7.79-12.26L7.79-12.26L7.79-12.26Q7.36-12.20 6.93-12.37L6.93-12.37L6.93-12.37Q6.13-12.67 5.93-13.31L5.93-13.31L5.93-13.31Q5.78-14.03 6.56-14.40ZM13.43-13.45L13.43-13.45L13.43-13.45Q12.65-14.05 11.46-13.56L11.46-13.56L11.46-13.56Q10.34-13.47 10.77-12.57L10.77-12.57L10.77-12.57Q10.75-12.00 10.83-11.92L10.83-11.92L10.83-11.92Q11.05-11.71 11.61-11.89L11.61-11.89L13.00-12.08L13.00-12.08Q13.47-12.33 13.54-12.63L13.54-12.63L13.54-12.63Q13.72-13.08 13.43-13.45ZM12.14-9.97L12.14-9.97L12.14-9.97Q11.67-10.07 10.32-9.82L10.32-9.82L10.32-9.82Q9.68-9.58 9.56-8.84L9.56-8.84L9.56-8.84Q9.25-8.33 9.68-8.12L9.68-8.12L9.68-8.12Q10.01-8.06 10.60-8.31L10.60-8.31L10.60-8.31Q11.53-8.49 11.81-8.84L11.81-8.84L11.81-8.84Q12.35-9.54 12.14-9.97ZM13.43-2.81L13.43-2.81L13.43-2.81Q13.08-2.99 12.24-2.60L12.24-2.60L12.24-2.60Q11.71-2.56 10.60-2.19L10.60-2.19L10.60-2.19Q9.52-1.89 9.84-1.00L9.84-1.00L9.95-0.43L9.95-0.43Q9.95 0.43 10.68 0.47L10.68 0.47L11.50 0.29L11.50 0.29Q12.80-0.27 13.29-1.70L13.29-1.70L13.29-1.70Q13.60-2.42 13.43-2.81Z" transform="translate(0 16.7138671875)"></path><path fill="#683A8D" d="M12.49-15.16L12.49-15.16L12.49-15.16Q13.56-15.44 14.56-14.40L14.56-14.40L14.95-13.95L14.95-13.95Q15.63-12.74 14.27-12.35L14.27-12.35L14.27-12.35Q13.37-12.00 12.63-11.22L12.63-11.22L12.63-11.22Q12.41-10.91 11.87-10.60L11.87-10.60L11.87-10.60Q10.97-10.38 11.57-9.56L11.57-9.56L11.57-9.56Q11.96-8.57 12.51-8.65L12.51-8.65L12.51-8.65Q14.15-8.84 15.79-8.96L15.79-8.96L15.79-8.96Q17.21-9.45 18.29-7.90L18.29-7.90L18.29-7.90Q18.54-7.49 18.38-6.89L18.38-6.89L18.38-6.89Q18.19-6.28 17.12-6.13L17.12-6.13L17.12-6.13Q16.59-6.11 15.34-6.32L15.34-6.32L15.34-6.32Q13.74-6.42 12.90-6.25L12.90-6.25L12.90-6.25Q12.33-6.05 12.51-5.19L12.51-5.19L12.51-5.19Q12.57-3.45 12.41-2.19L12.41-2.19L12.41-2.19Q12.20-0.43 11.26 1.09L11.26 1.09L11.26 1.09Q10.81 1.52 10.46 1.60L10.46 1.60L10.46 1.60Q10.01 1.72 9.64 2.03L9.64 2.03L9.64 2.03Q9.25 2.42 8.22 2.56L8.22 2.56L8.22 2.56Q7.67 2.58 7.44 1.80L7.44 1.80L7.44 1.80Q7.38 1.23 6.77 0.76L6.77 0.76L6.77 0.76Q6.11 0.25 6.71 0.33L6.71 0.33L6.71 0.33Q7.85 0.49 8.67 0.16L8.67 0.16L8.67 0.16Q9.58-0.39 9.84-1.35L9.84-1.35L9.84-1.35Q10.44-2.99 10.40-5.19L10.40-5.19L10.40-5.19Q10.42-6.01 9.56-5.82L9.56-5.82L9.56-5.82Q6.28-5.41 4.22-4.74L4.22-4.74L4.22-4.74Q3.49-4.61 2.99-5.07L2.99-5.07L2.99-5.07Q2.44-5.64 2.46-6.30L2.46-6.30L2.46-6.30Q2.56-6.77 2.99-7.08L2.99-7.08L2.99-7.08Q4.14-7.71 6.28-7.92L6.28-7.92L9.15-8.33L9.15-8.33Q10.07-8.31 9.68-9.17L9.68-9.17L9.68-9.17Q9.56-9.56 9.19-10.01L9.19-10.01L9.19-10.01Q9.00-10.62 9.02-10.71L9.02-10.71L9.02-10.71Q9.37-11.20 10.46-10.71L10.46-10.71L10.46-10.71Q10.91-10.83 10.97-11.26L10.97-11.26L10.97-11.26Q11.16-11.92 11.75-12.90L11.75-12.90L11.75-12.90Q12.26-13.80 11.57-14.11L11.57-14.11L11.57-14.11Q10.17-13.74 9.21-12.88L9.21-12.88L9.21-12.88Q7.92-11.24 6.54-12.63L6.54-12.63L6.54-12.63Q5.58-13.86 7.32-14.60L7.32-14.60L7.32-14.60Q9.15-14.97 11.55-14.99L11.55-14.99L11.55-14.99Q12.04-14.99 12.49-15.16Z" transform="translate(21 16.7138671875)"></path><path fill="#683A8D" d="M9.60-14.50L9.60-14.50L9.60-14.50Q10.13-15.89 11.16-15.07L11.16-15.07L11.16-15.07Q11.81-14.07 11.65-12.96L11.65-12.96L11.65-12.96Q11.53-12.12 12.30-12.35L12.30-12.35L12.30-12.35Q13.13-12.55 13.95-12.67L13.95-12.67L13.95-12.67Q14.70-12.96 15.32-12.41L15.32-12.41L15.32-12.41Q15.93-11.36 14.60-10.73L14.60-10.73L14.60-10.73Q13.54-10.34 12.14-10.19L12.14-10.19L12.14-10.19Q11.73-10.11 11.61-10.01L11.61-10.01L11.61-10.01Q11.34-9.70 11.42-8.90L11.42-8.90L11.42-8.90Q11.24-8.24 11.89-8.16L11.89-8.16L11.89-8.16Q12.20-8.16 13.02-8.41L13.02-8.41L13.02-8.41Q13.78-8.57 14.31-8.22L14.31-8.22L14.31-8.22Q14.66-7.92 14.60-7.53L14.60-7.53L14.60-7.53Q14.50-6.89 13.66-6.48L13.66-6.48L13.66-6.48Q11.81-6.01 7.92-5.52L7.92-5.52L7.92-5.52Q7.26-5.39 6.69-5.84L6.69-5.84L6.69-5.84Q5.82-6.81 6.87-7.36L6.87-7.36L8.49-7.55L8.49-7.55Q9.56-7.61 9.33-8.47L9.33-8.47L9.33-8.47Q9.39-9.19 9.21-9.56L9.21-9.56L9.21-9.56Q9.08-9.76 8.74-9.72L8.74-9.72L8.74-9.72Q7.51-9.58 6.28-9.35L6.28-9.35L6.28-9.35Q5.25-9.35 4.88-10.56L4.88-10.56L4.88-10.56Q4.98-11.53 6.01-11.42L6.01-11.42L8.47-11.69L8.47-11.69Q8.98-11.73 9.19-11.94L9.19-11.94L9.19-11.94Q9.43-12.20 9.35-12.86L9.35-12.86L9.35-12.86Q9.39-13.76 9.60-14.50ZM14.13-5.09L14.13-5.09L14.13-5.09Q15.13-5.82 16.49-5.33L16.49-5.33L16.49-5.33Q17.60-4.92 18.13-4.59L18.13-4.59L18.13-4.59Q19.07-4.08 18.72-3.06L18.72-3.06L18.72-3.06Q18.15-2.05 16.43-2.91L16.43-2.91L16.43-2.91Q15.61-3.30 14.38-4.16L14.38-4.16L14.38-4.16Q13.60-4.55 14.13-5.09ZM5.99-4.66L5.99-4.66L5.99-4.66Q6.52-4.92 6.75-4.27L6.75-4.27L6.75-4.27Q7.32-1.13 10.27 0.04L10.27 0.04L10.27 0.04Q11.83 0.55 14.29 0.18L14.29 0.18L14.29 0.18Q14.97-0.04 14.50-0.92L14.50-0.92L14.03-2.01L14.03-2.01Q13.78-2.60 14.31-1.99L14.31-1.99L14.31-1.99Q15.44-0.90 16.51-0.94L16.51-0.94L16.51-0.94Q17.41-0.80 17.00 0L17.00 0L17.00 0Q16.94 0.35 17.02 0.70L17.02 0.70L17.02 0.70Q16.92 1.21 16.34 1.58L16.34 1.58L16.34 1.58Q13.76 3.36 9.29 1.62L9.29 1.62L9.29 1.62Q5.97-0.12 5.68-3.59L5.68-3.59L5.68-3.59Q5.54-4.12 5.99-4.66ZM9.25-3.69L9.25-3.69L9.25-3.69Q9.47-4.51 10.03-4.43L10.03-4.43L10.03-4.43Q10.25-4.43 10.64-4.00L10.64-4.00L10.64-4.00Q11.05-3.06 11.79-3.51L11.79-3.51L11.79-3.51Q11.94-3.63 11.85-2.97L11.85-2.97L12.06-2.11L12.06-2.11Q12.10-1.72 11.75-1.56L11.75-1.56L11.75-1.56Q11.01-1.29 10.11-2.07L10.11-2.07L10.11-2.07Q9.15-2.85 9.25-3.69ZM3.32-3.32L3.32-3.32L3.32-3.32Q3.61-3.65 3.92-3.65L3.92-3.65L3.92-3.65Q4.59-3.51 4.06-2.79L4.06-2.79L4.06-2.79Q3.77-2.09 3.65-0.41L3.65-0.41L3.65-0.41Q3.75 0.86 3.47 1.39L3.47 1.39L3.47 1.39Q3.36 1.52 3.24 1.56L3.24 1.56L3.24 1.56Q2.73 1.29 2.32 0.37L2.32 0.37L2.32 0.37Q1.99-0.37 2.17-0.86L2.17-0.86L2.17-0.86Q2.42-2.17 3.32-3.32Z" transform="translate(42 16.7138671875)"></path><path fill="#683A8D" d="M7.28-15.03L7.28-15.03L7.28-15.03Q7.53-15.26 8.10-14.97L8.10-14.97L8.10-14.97Q8.55-14.62 8.67-14.01L8.67-14.01L8.67-14.01Q8.65-13.72 8.98-13.58L8.98-13.58L8.98-13.58Q9.88-13.62 10.32-13.47L10.32-13.47L10.32-13.47Q11.07-12.98 10.79-12.30L10.79-12.30L10.79-12.30Q10.62-11.94 10.05-11.89L10.05-11.89L10.05-11.89Q9.64-11.83 9.23-11.69L9.23-11.69L9.23-11.69Q8.45-11.44 8.59-10.77L8.59-10.77L8.59-10.77Q8.45-9.70 9.37-10.09L9.37-10.09L9.37-10.09Q10.50-10.25 10.34-9.17L10.34-9.17L10.34-9.17Q10.11-8.22 9.00-8.10L9.00-8.10L9.00-8.10Q8.16-7.75 8.33-7.08L8.33-7.08L8.33-7.08Q8.20-6.52 8.67-6.44L8.67-6.44L8.67-6.44Q9.06-6.56 9.52-6.62L9.52-6.62L9.52-6.62Q10.15-6.60 10.56-6.32L10.56-6.32L10.56-6.32Q11.36-5.41 9.86-4.84L9.86-4.84L9.86-4.84Q9.33-4.51 8.22-4.25L8.22-4.25L8.22-4.25Q7.75-4.00 7.69-3.51L7.69-3.51L7.69-3.51Q7.08-1.25 5.17 1.00L5.17 1.00L5.17 1.00Q4.53 1.44 4.70 0.82L4.70 0.82L4.70 0.82Q5.23-0.80 5.82-2.44L5.82-2.44L5.82-2.44Q6.15-3.08 5.66-3.22L5.66-3.22L5.66-3.22Q5.29-3.16 4.92-3.04L4.92-3.04L4.92-3.04Q4.25-2.87 3.51-3.26L3.51-3.26L3.51-3.26Q2.52-4.49 4.16-5.23L4.16-5.23L4.16-5.23Q5.19-5.52 6.21-5.66L6.21-5.66L6.21-5.66Q6.79-5.84 6.62-6.77L6.62-6.77L6.62-6.77Q6.52-7.40 6.01-7.20L6.01-7.20L6.01-7.20Q5.19-7.03 4.55-8.00L4.55-8.00L4.55-8.00Q4.14-8.84 5.07-8.92L5.07-8.92L5.89-9.13L5.89-9.13Q6.97-9.27 6.77-10.21L6.77-10.21L6.77-10.21Q7.01-11.28 6.03-11.09L6.03-11.09L4.39-10.77L4.39-10.77Q3.77-10.62 4.31-11.20L4.31-11.20L4.31-11.20Q5.41-12.04 6.36-12.47L6.36-12.47L6.36-12.47Q6.83-12.67 6.83-13.13L6.83-13.13L6.83-13.13Q6.77-14.21 7.28-15.03ZM17.43-14.46L17.43-14.46L17.43-14.46Q18.64-15.22 18.97-13.60L18.97-13.60L18.97-13.60Q19.11-13.02 18.62-12.37L18.62-12.37L18.62-12.37Q17.31-11.26 16.49-10.15L16.49-10.15L16.49-10.15Q15.93-9.50 16.53-9.23L16.53-9.23L16.53-9.23Q20.71-6.85 18.74-3.24L18.74-3.24L18.74-3.24Q18.21-2.38 17.21-2.07L17.21-2.07L17.21-2.07Q16.37-1.31 15.71-1.93L15.71-1.93L15.71-1.93Q15.63-2.07 15.59-2.28L15.59-2.28L15.59-2.28Q15.26-3.12 14.05-3.53L14.05-3.53L14.05-3.53Q13.86-3.51 13.76-2.85L13.76-2.85L13.76-2.85Q13.68-0.23 12.86 1.83L12.86 1.83L12.86 1.83Q12.63 2.34 12.35 2.52L12.35 2.52L12.35 2.52Q12.18 2.58 11.94 1.78L11.94 1.78L11.94 1.78Q11.81 1.11 11.79-0.70L11.79-0.70L11.79-0.70Q11.77-6.30 11.85-12.78L11.85-12.78L11.85-12.78Q12.06-14.29 13.33-13.84L13.33-13.84L13.33-13.84Q13.74-13.76 14.15-13.84L14.15-13.84L14.15-13.84Q15.38-14.01 16.61-14.09L16.61-14.09L16.61-14.09Q17.12-14.21 17.43-14.46ZM16.04-13.13L16.04-13.13L16.04-13.13Q14.58-12.74 13.88-11.26L13.88-11.26L13.88-11.26Q13.49-9.58 13.76-6.99L13.76-6.99L13.84-4.16L13.84-4.16Q13.95-3.88 14.54-3.81L14.54-3.81L14.54-3.81Q15.52-3.67 16.18-3.83L16.18-3.83L16.18-3.83Q16.84-3.88 17.19-4.74L17.19-4.74L17.19-4.74Q17.62-6.60 16.08-8.63L16.08-8.63L16.08-8.63Q15.75-9.06 15.26-8.76L15.26-8.76L15.26-8.76Q14.91-8.33 14.56-8.37L14.56-8.37L14.56-8.37Q14.46-8.39 14.40-8.47L14.40-8.47L14.40-8.47Q15.20-10.62 16.67-13.00L16.67-13.00L16.67-13.00Q16.63-13.35 16.04-13.13Z" transform="translate(63 16.7138671875)"></path></g></svg></g> <!----></g>  <!----></svg>